<svg xmlns="http://www.w3.org/2000/svg" width="1000" height="580" viewBox="0 0 1000 580">
  <rect width="100%" height="100%" fill="#ffffff" />
  <style>
    text { font-family: "Microsoft YaHei", "PingFang SC", Arial, sans-serif; }
  </style>
  <text x="500.0" y="38.0" text-anchor="middle" font-size="26" font-weight="700" fill="#222222">成功修复任务的过程效率</text>
  <text x="500.0" y="68.0" text-anchor="middle" font-size="17" font-weight="400" fill="#555555">前六个困难任务，同模型汇总结果</text>
  <line x1="110.0" y1="105.0" x2="110.0" y2="480.0" stroke="#E8E8E8" stroke-width="1.0" />
  <text x="110.0" y="507.0" text-anchor="middle" font-size="15" font-weight="400" fill="#555555">0</text>
  <line x1="269.2" y1="105.0" x2="269.2" y2="480.0" stroke="#E8E8E8" stroke-width="1.0" />
  <text x="269.2" y="507.0" text-anchor="middle" font-size="15" font-weight="400" fill="#555555">1</text>
  <line x1="428.4" y1="105.0" x2="428.4" y2="480.0" stroke="#E8E8E8" stroke-width="1.0" />
  <text x="428.4" y="507.0" text-anchor="middle" font-size="15" font-weight="400" fill="#555555">2</text>
  <line x1="587.6" y1="105.0" x2="587.6" y2="480.0" stroke="#E8E8E8" stroke-width="1.0" />
  <text x="587.6" y="507.0" text-anchor="middle" font-size="15" font-weight="400" fill="#555555">3</text>
  <line x1="746.8" y1="105.0" x2="746.8" y2="480.0" stroke="#E8E8E8" stroke-width="1.0" />
  <text x="746.8" y="507.0" text-anchor="middle" font-size="15" font-weight="400" fill="#555555">4</text>
  <line x1="110.0" y1="480.0" x2="715.0" y2="480.0" stroke="#E8E8E8" stroke-width="1.0" />
  <text x="98.0" y="485.0" text-anchor="end" font-size="15" font-weight="400" fill="#555555">0k</text>
  <line x1="110.0" y1="417.5" x2="715.0" y2="417.5" stroke="#E8E8E8" stroke-width="1.0" />
  <text x="98.0" y="422.5" text-anchor="end" font-size="15" font-weight="400" fill="#555555">20k</text>
  <line x1="110.0" y1="355.0" x2="715.0" y2="355.0" stroke="#E8E8E8" stroke-width="1.0" />
  <text x="98.0" y="360.0" text-anchor="end" font-size="15" font-weight="400" fill="#555555">40k</text>
  <line x1="110.0" y1="292.5" x2="715.0" y2="292.5" stroke="#E8E8E8" stroke-width="1.0" />
  <text x="98.0" y="297.5" text-anchor="end" font-size="15" font-weight="400" fill="#555555">60k</text>
  <line x1="110.0" y1="230.0" x2="715.0" y2="230.0" stroke="#E8E8E8" stroke-width="1.0" />
  <text x="98.0" y="235.0" text-anchor="end" font-size="15" font-weight="400" fill="#555555">80k</text>
  <line x1="110.0" y1="167.5" x2="715.0" y2="167.5" stroke="#E8E8E8" stroke-width="1.0" />
  <text x="98.0" y="172.5" text-anchor="end" font-size="15" font-weight="400" fill="#555555">100k</text>
  <line x1="110.0" y1="105.0" x2="715.0" y2="105.0" stroke="#E8E8E8" stroke-width="1.0" />
  <text x="98.0" y="110.0" text-anchor="end" font-size="15" font-weight="400" fill="#555555">120k</text>
  <line x1="110.0" y1="105.0" x2="110.0" y2="480.0" stroke="#333333" stroke-width="1.0" />
  <line x1="110.0" y1="480.0" x2="715.0" y2="480.0" stroke="#333333" stroke-width="1.0" />
  <text x="412.5" y="548.0" text-anchor="middle" font-size="18" font-weight="700" fill="#222222">每个已解决任务的诊断-编辑-测试循环数</text>
  <text x="30.0" y="292.5" text-anchor="middle" font-size="18" font-weight="700" fill="#222222" transform="rotate(-90 30 292.5)">每个已解决任务的 Token 数</text>
  <circle cx="428.4" cy="302.3" r="16.3" fill="#0072B2" opacity="0.88" stroke="#222222" stroke-width="1.0" />
  <text x="428.4" y="307.3" text-anchor="middle" font-size="14" font-weight="700" fill="#FFFFFF">A</text>
  <circle cx="428.4" cy="256.0" r="16.3" fill="#009E73" opacity="0.88" stroke="#222222" stroke-width="1.0" />
  <text x="428.4" y="261.0" text-anchor="middle" font-size="14" font-weight="700" fill="#FFFFFF">G</text>
  <circle cx="523.9" cy="274.0" r="16.3" fill="#D55E00" opacity="0.88" stroke="#222222" stroke-width="1.0" />
  <text x="523.9" y="279.0" text-anchor="middle" font-size="14" font-weight="700" fill="#FFFFFF">R</text>
  <circle cx="547.8" cy="244.9" r="14.7" fill="#CC79A7" opacity="0.88" stroke="#222222" stroke-width="1.0" />
  <text x="547.8" y="249.9" text-anchor="middle" font-size="14" font-weight="700" fill="#222222">L</text>
  <circle cx="587.6" cy="192.4" r="14.7" fill="#6B6B6B" opacity="0.88" stroke="#222222" stroke-width="1.0" />
  <text x="587.6" y="197.4" text-anchor="middle" font-size="14" font-weight="700" fill="#FFFFFF">N</text>
  <text x="755.0" y="125.0" text-anchor="start" font-size="18" font-weight="700" fill="#222222">方法</text>
  <circle cx="769" cy="165.0" r="14" fill="#0072B2" opacity="0.88" stroke="#222222" stroke-width="1.0" />
  <text x="769.0" y="170.0" text-anchor="middle" font-size="13" font-weight="700" fill="#FFFFFF">A</text>
  <text x="795.0" y="170.0" text-anchor="start" font-size="15" font-weight="700" fill="#222222">Auto SKILL.md</text>
  <circle cx="769" cy="219.0" r="14" fill="#009E73" opacity="0.88" stroke="#222222" stroke-width="1.0" />
  <text x="769.0" y="224.0" text-anchor="middle" font-size="13" font-weight="700" fill="#FFFFFF">G</text>
  <text x="795.0" y="224.0" text-anchor="start" font-size="15" font-weight="700" fill="#222222">通用检查清单</text>
  <circle cx="769" cy="273.0" r="14" fill="#D55E00" opacity="0.88" stroke="#222222" stroke-width="1.0" />
  <text x="769.0" y="278.0" text-anchor="middle" font-size="13" font-weight="700" fill="#FFFFFF">R</text>
  <text x="795.0" y="278.0" text-anchor="start" font-size="15" font-weight="700" fill="#222222">Reflexion 记忆</text>
  <circle cx="769" cy="327.0" r="14" fill="#CC79A7" opacity="0.88" stroke="#222222" stroke-width="1.0" />
  <text x="769.0" y="332.0" text-anchor="middle" font-size="13" font-weight="700" fill="#222222">L</text>
  <text x="795.0" y="332.0" text-anchor="start" font-size="15" font-weight="700" fill="#222222">等长 Reflexion</text>
  <circle cx="769" cy="381.0" r="14" fill="#6B6B6B" opacity="0.88" stroke="#222222" stroke-width="1.0" />
  <text x="769.0" y="386.0" text-anchor="middle" font-size="13" font-weight="700" fill="#FFFFFF">N</text>
  <text x="795.0" y="386.0" text-anchor="start" font-size="15" font-weight="700" fill="#222222">无记忆</text>
</svg>
