<svg xmlns="http://www.w3.org/2000/svg" width="760" height="500" viewBox="0 0 760 500">
  <rect width="100%" height="100%" fill="#ffffff" />
  <style>
    text { font-family: Arial, Helvetica, sans-serif; }
  </style>
  <text x="380.0" y="32.0" text-anchor="middle" font-size="20" font-weight="700" fill="#222222">pybughive_black_234 token cost by method</text>
  <text x="380.0" y="54.0" text-anchor="middle" font-size="12" font-weight="400" fill="#555555">Exploratory single-task result run with gpt-5.5</text>
  <text x="385.0" y="73.0" text-anchor="middle" font-size="20" font-weight="700" fill="#222222">Tokens per solved task</text>
  <line x1="108.0" y1="375.0" x2="694.0" y2="375.0" stroke="#E0E0E0" stroke-width="1.0" />
  <text x="98.0" y="380.0" text-anchor="end" font-size="15" font-weight="400" fill="#555555">0k</text>
  <line x1="108.0" y1="305.0" x2="694.0" y2="305.0" stroke="#E0E0E0" stroke-width="1.0" />
  <text x="98.0" y="310.0" text-anchor="end" font-size="15" font-weight="400" fill="#555555">25k</text>
  <line x1="108.0" y1="235.0" x2="694.0" y2="235.0" stroke="#E0E0E0" stroke-width="1.0" />
  <text x="98.0" y="240.0" text-anchor="end" font-size="15" font-weight="400" fill="#555555">50k</text>
  <line x1="108.0" y1="165.0" x2="694.0" y2="165.0" stroke="#E0E0E0" stroke-width="1.0" />
  <text x="98.0" y="170.0" text-anchor="end" font-size="15" font-weight="400" fill="#555555">75k</text>
  <line x1="108.0" y1="95.0" x2="694.0" y2="95.0" stroke="#E0E0E0" stroke-width="1.0" />
  <text x="98.0" y="100.0" text-anchor="end" font-size="15" font-weight="400" fill="#555555">100k</text>
  <line x1="108.0" y1="95.0" x2="108.0" y2="375.0" stroke="#333333" stroke-width="1.0" />
  <line x1="108.0" y1="375.0" x2="694.0" y2="375.0" stroke="#333333" stroke-width="1.0" />
  <text x="68.0" y="235.0" text-anchor="middle" font-size="17" font-weight="700" fill="#333333" transform="rotate(-90 68 235.0)">Tokens</text>
  <rect x="126.0" y="169.7" width="95.6" height="205.3" rx="3.0" ry="3.0" fill="#0072B2" opacity="1.000" stroke="none" stroke-width="1.0" />
  <text x="173.8" y="160.7" text-anchor="middle" font-size="16" font-weight="700" fill="#222222">73k</text>
  <text x="173.8" y="402.0" text-anchor="middle" font-size="15" fill="#222222"><tspan x="173.8" dy="0">Auto</tspan><tspan x="173.8" dy="18">SKILL.md</tspan></text>
  <rect x="239.6" y="224.3" width="95.6" height="150.7" rx="3.0" ry="3.0" fill="#009E73" opacity="1.000" stroke="none" stroke-width="1.0" />
  <text x="287.4" y="215.3" text-anchor="middle" font-size="16" font-weight="700" fill="#222222">54k</text>
  <text x="287.4" y="402.0" text-anchor="middle" font-size="15" fill="#222222"><tspan x="287.4" dy="0">Generic</tspan><tspan x="287.4" dy="18">checklist</tspan></text>
  <rect x="353.2" y="228.8" width="95.6" height="146.2" rx="3.0" ry="3.0" fill="#D55E00" opacity="1.000" stroke="none" stroke-width="1.0" />
  <text x="401.0" y="219.8" text-anchor="middle" font-size="16" font-weight="700" fill="#222222">52k</text>
  <text x="401.0" y="402.0" text-anchor="middle" font-size="15" fill="#222222"><tspan x="401.0" dy="0">Reflexion</tspan><tspan x="401.0" dy="18">memory</tspan></text>
  <rect x="466.8" y="231.2" width="95.6" height="143.8" rx="3.0" ry="3.0" fill="#CC79A7" opacity="1.000" stroke="none" stroke-width="1.0" />
  <text x="514.6" y="222.2" text-anchor="middle" font-size="16" font-weight="700" fill="#222222">51k</text>
  <text x="514.6" y="402.0" text-anchor="middle" font-size="15" fill="#222222"><tspan x="514.6" dy="0">Length</tspan><tspan x="514.6" dy="18">matched</tspan><tspan x="514.6" dy="18">Reflexion</tspan></text>
  <rect x="580.4" y="97.9" width="95.6" height="277.1" rx="3.0" ry="3.0" fill="#6B6B6B" opacity="1.000" stroke="none" stroke-width="1.0" />
  <text x="628.2" y="88.9" text-anchor="middle" font-size="16" font-weight="700" fill="#222222">99k</text>
  <text x="628.2" y="402.0" text-anchor="middle" font-size="15" fill="#222222"><tspan x="628.2" dy="0">No</tspan><tspan x="628.2" dy="18">memory</tspan></text>
  <text x="380.0" y="465.0" text-anchor="middle" font-size="12" font-weight="400" fill="#555555">All five methods solved; this task separates mostly by token cost.</text>
</svg>
